<svg width="476" height="524" viewBox="0 0 476 524" fill="none" xmlns="http://www.w3.org/2000/svg">
<g opacity="0.3">
<g clip-path="url(#clip0_16_17)">
<path d="M240.127 511.763C240.365 511.984 240.66 512.135 240.978 512.199C241.297 512.262 241.627 512.236 241.931 512.122C242.236 512.009 242.503 511.813 242.703 511.557C242.902 511.3 243.027 510.993 243.062 510.67H253.448C253.476 511.005 253.601 511.325 253.809 511.589C254.016 511.854 254.297 512.052 254.615 512.16C254.934 512.267 255.277 512.279 255.602 512.194C255.928 512.109 256.221 511.931 256.446 511.682C256.672 511.432 256.819 511.122 256.871 510.79C256.923 510.458 256.876 510.118 256.737 509.812C256.598 509.505 256.372 509.247 256.088 509.067C255.803 508.887 255.473 508.795 255.136 508.801C254.713 508.801 254.305 508.96 253.993 509.246C253.68 509.531 253.486 509.924 253.448 510.345H243.062C243.024 509.924 242.829 509.531 242.517 509.246C242.204 508.96 241.796 508.801 241.373 508.801C241.032 508.805 240.699 508.908 240.416 509.099C240.132 509.289 239.911 509.559 239.779 509.873C239.646 510.188 239.609 510.534 239.671 510.87C239.732 511.206 239.891 511.516 240.127 511.763Z" fill="#1781AE"/>
<path d="M282.392 505.27C282.241 504.982 282.012 504.742 281.731 504.578C281.451 504.413 281.13 504.331 280.805 504.339C280.479 504.348 280.163 504.447 279.892 504.626C279.62 504.804 279.404 505.056 279.267 505.351L269.442 501.973C269.524 501.647 269.509 501.304 269.399 500.986C269.289 500.669 269.088 500.39 268.822 500.185C268.555 499.979 268.235 499.857 267.899 499.831C267.564 499.806 267.228 499.879 266.934 500.042C266.64 500.205 266.4 500.45 266.243 500.748C266.086 501.045 266.02 501.382 266.052 501.717C266.084 502.052 266.214 502.37 266.425 502.632C266.635 502.894 266.918 503.089 267.238 503.192C267.638 503.332 268.076 503.316 268.465 503.149C268.855 502.982 269.168 502.675 269.342 502.289L279.159 505.667C279.055 506.077 279.11 506.512 279.312 506.884C279.515 507.255 279.851 507.537 280.252 507.672C280.577 507.78 280.926 507.79 281.256 507.702C281.587 507.613 281.884 507.43 282.112 507.175C282.34 506.919 282.487 506.603 282.537 506.264C282.587 505.926 282.537 505.58 282.392 505.27Z" fill="#1781AE"/>
<path d="M275.321 503.319C275.378 503.633 275.517 503.926 275.724 504.168C275.932 504.41 276.199 504.594 276.5 504.699C276.801 504.805 277.124 504.829 277.438 504.769C277.751 504.709 278.042 504.567 278.283 504.358L286.257 511.004C286.061 511.281 285.95 511.608 285.938 511.947C285.926 512.286 286.013 512.621 286.189 512.91C286.365 513.2 286.623 513.432 286.929 513.577C287.235 513.722 287.578 513.774 287.913 513.726C288.249 513.679 288.563 513.534 288.817 513.31C289.072 513.086 289.255 512.792 289.344 512.465C289.433 512.138 289.424 511.792 289.318 511.469C289.213 511.147 289.015 510.863 288.75 510.652C288.424 510.382 288.009 510.244 287.587 510.264C287.164 510.284 286.764 510.461 286.465 510.761L278.491 504.123C278.729 503.774 278.83 503.349 278.773 502.93C278.716 502.512 278.506 502.129 278.184 501.856C277.914 501.661 277.596 501.545 277.265 501.52C276.933 501.495 276.601 501.561 276.305 501.712C276.009 501.864 275.761 502.094 275.587 502.377C275.413 502.661 275.321 502.987 275.321 503.319Z" fill="#1781AE"/>
<path d="M220.033 516.405C220.318 516.247 220.553 516.013 220.713 515.729C220.872 515.445 220.949 515.122 220.935 514.796C220.921 514.471 220.816 514.155 220.633 513.886C220.45 513.617 220.195 513.404 219.897 513.271L223.103 503.4C223.431 503.477 223.773 503.456 224.089 503.341C224.405 503.226 224.68 503.02 224.881 502.751C225.081 502.481 225.199 502.159 225.219 501.823C225.239 501.487 225.16 501.153 224.993 500.862C224.825 500.57 224.576 500.334 224.276 500.182C223.976 500.03 223.639 499.969 223.304 500.007C222.97 500.044 222.655 500.178 222.396 500.393C222.137 500.608 221.947 500.893 221.848 501.215C221.717 501.618 221.741 502.056 221.917 502.442C222.092 502.828 222.406 503.134 222.796 503.301L219.59 513.154C219.177 513.061 218.744 513.127 218.376 513.337C218.008 513.548 217.733 513.888 217.603 514.292C217.499 514.618 217.492 514.968 217.584 515.298C217.676 515.628 217.863 515.924 218.122 516.149C218.38 516.374 218.699 516.518 219.039 516.563C219.378 516.609 219.724 516.554 220.033 516.405Z" fill="#1781AE"/>
<path d="M242.24 504.963C241.961 504.801 241.644 504.717 241.321 504.72C240.999 504.723 240.683 504.812 240.407 504.977C240.13 505.143 239.903 505.38 239.749 505.663C239.595 505.947 239.52 506.266 239.531 506.588L229.335 508.521C229.246 508.194 229.064 507.9 228.811 507.675C228.557 507.451 228.243 507.305 227.908 507.257C227.573 507.208 227.231 507.259 226.924 507.403C226.618 507.547 226.36 507.778 226.183 508.066C226.006 508.355 225.917 508.689 225.928 509.028C225.938 509.366 226.048 509.694 226.243 509.971C226.438 510.248 226.71 510.462 227.025 510.586C227.34 510.71 227.685 510.74 228.016 510.67C228.428 510.592 228.797 510.364 229.052 510.031C229.306 509.698 229.43 509.282 229.398 508.864L239.594 506.931C239.709 507.34 239.973 507.691 240.335 507.913C240.696 508.136 241.128 508.214 241.545 508.132C241.888 508.073 242.206 507.913 242.458 507.672C242.709 507.432 242.884 507.122 242.958 506.781C243.033 506.441 243.004 506.086 242.877 505.762C242.749 505.438 242.527 505.16 242.24 504.963Z" fill="#1781AE"/>
<path d="M125.992 517.805C126.306 517.887 126.637 517.88 126.947 517.785C127.257 517.69 127.535 517.511 127.749 517.268C127.964 517.024 128.106 516.726 128.161 516.406C128.216 516.086 128.181 515.758 128.061 515.457L137.227 510.562C137.409 510.848 137.671 511.075 137.981 511.213C138.291 511.352 138.634 511.397 138.969 511.342C139.304 511.287 139.615 511.135 139.865 510.906C140.114 510.676 140.291 510.377 140.373 510.048C140.454 509.719 140.438 509.373 140.325 509.053C140.212 508.733 140.007 508.453 139.737 508.248C139.466 508.044 139.142 507.923 138.803 507.9C138.465 507.878 138.127 507.956 137.832 508.124C137.461 508.326 137.178 508.658 137.038 509.057C136.898 509.456 136.91 509.892 137.074 510.282L127.907 515.168C127.675 514.815 127.32 514.561 126.911 514.455C126.502 514.35 126.068 514.401 125.694 514.599C125.413 514.777 125.185 515.029 125.038 515.328C124.891 515.627 124.829 515.961 124.86 516.293C124.891 516.625 125.013 516.942 125.213 517.209C125.413 517.476 125.683 517.682 125.992 517.805Z" fill="#1781AE"/>
<path d="M353.457 517.597C353.546 517.284 353.546 516.952 353.456 516.64C353.366 516.327 353.19 516.046 352.949 515.828C352.707 515.61 352.409 515.464 352.089 515.406C351.769 515.348 351.439 515.382 351.136 515.502L346.341 506.29C346.625 506.11 346.85 505.851 346.989 505.545C347.128 505.238 347.174 504.898 347.122 504.566C347.07 504.234 346.921 503.924 346.696 503.675C346.47 503.426 346.176 503.248 345.85 503.163C345.525 503.079 345.182 503.092 344.863 503.2C344.545 503.308 344.265 503.507 344.058 503.772C343.851 504.037 343.726 504.356 343.698 504.692C343.671 505.027 343.742 505.363 343.903 505.658C344.098 506.033 344.427 506.322 344.825 506.467C345.223 506.613 345.66 506.604 346.052 506.444L350.847 515.646C350.491 515.875 350.234 516.229 350.125 516.639C350.016 517.048 350.065 517.483 350.26 517.859C350.422 518.158 350.668 518.404 350.967 518.566C351.266 518.728 351.605 518.799 351.944 518.771C352.283 518.744 352.607 518.618 352.876 518.409C353.144 518.201 353.346 517.919 353.457 517.597Z" fill="#1781AE"/>
<path d="M327.394 501.793C327.206 502.058 327.096 502.371 327.075 502.696C327.055 503.021 327.126 503.346 327.28 503.633C327.434 503.92 327.664 504.158 327.946 504.321C328.228 504.484 328.55 504.566 328.875 504.556L330.266 514.843C329.935 514.914 329.631 515.08 329.394 515.322C329.156 515.563 328.995 515.869 328.929 516.202C328.863 516.534 328.896 516.878 329.024 517.192C329.152 517.506 329.369 517.775 329.648 517.967C329.927 518.159 330.257 518.265 330.595 518.272C330.934 518.278 331.268 518.186 331.554 518.005C331.841 517.824 332.068 517.564 332.209 517.255C332.349 516.947 332.395 516.604 332.343 516.27C332.285 515.85 332.072 515.467 331.746 515.197C331.42 514.926 331.005 514.787 330.582 514.807L329.191 504.511C329.603 504.416 329.966 504.171 330.208 503.824C330.45 503.477 330.554 503.052 330.501 502.633C330.432 502.307 330.275 502.006 330.046 501.764C329.817 501.522 329.526 501.348 329.205 501.261C328.883 501.174 328.544 501.178 328.224 501.272C327.905 501.365 327.617 501.546 327.394 501.793Z" fill="#1781AE"/>
<path d="M166.325 518.184C166.495 517.906 166.583 517.586 166.581 517.26C166.579 516.934 166.486 516.615 166.312 516.339C166.138 516.063 165.891 515.841 165.598 515.698C165.306 515.555 164.979 515.496 164.654 515.529L162.559 505.36C162.884 505.261 163.173 505.07 163.389 504.809C163.606 504.548 163.742 504.229 163.779 503.891C163.816 503.554 163.754 503.213 163.599 502.911C163.445 502.609 163.205 502.359 162.91 502.192C162.614 502.025 162.277 501.948 161.938 501.971C161.599 501.994 161.275 502.116 161.005 502.321C160.735 502.527 160.531 502.807 160.419 503.127C160.307 503.447 160.291 503.794 160.374 504.123C160.459 504.537 160.696 504.904 161.039 505.151C161.382 505.399 161.805 505.509 162.225 505.459L164.32 515.628C163.915 515.752 163.571 516.022 163.354 516.386C163.137 516.75 163.063 517.182 163.146 517.597C163.239 517.92 163.42 518.21 163.669 518.436C163.917 518.661 164.224 518.813 164.554 518.874C164.884 518.935 165.225 518.903 165.538 518.781C165.851 518.659 166.123 518.452 166.325 518.184Z" fill="#1781AE"/>
<path d="M352.166 506.76C351.945 506.998 351.794 507.292 351.731 507.611C351.667 507.93 351.694 508.26 351.807 508.564C351.92 508.869 352.116 509.136 352.373 509.336C352.629 509.535 352.936 509.66 353.259 509.695V520.081C352.924 520.109 352.604 520.234 352.34 520.442C352.075 520.649 351.877 520.929 351.769 521.248C351.662 521.567 351.65 521.91 351.735 522.235C351.82 522.561 351.998 522.854 352.247 523.079C352.497 523.305 352.807 523.452 353.139 523.504C353.471 523.556 353.812 523.509 354.118 523.37C354.424 523.23 354.682 523.005 354.862 522.721C355.042 522.436 355.134 522.106 355.128 521.769C355.128 521.346 354.969 520.938 354.683 520.626C354.398 520.313 354.006 520.119 353.584 520.081V509.695C354.006 509.657 354.398 509.462 354.683 509.15C354.969 508.837 355.128 508.429 355.128 508.006C355.124 507.665 355.021 507.332 354.83 507.049C354.64 506.765 354.371 506.544 354.056 506.412C353.741 506.279 353.395 506.242 353.059 506.304C352.723 506.365 352.413 506.524 352.166 506.76Z" fill="#1781AE"/>
<path d="M330.428 502.94C330.666 503.161 330.961 503.312 331.28 503.375C331.598 503.439 331.928 503.412 332.233 503.299C332.538 503.185 332.805 502.99 333.004 502.733C333.204 502.477 333.328 502.17 333.363 501.847H343.749C343.777 502.182 343.903 502.502 344.11 502.766C344.318 503.031 344.598 503.229 344.917 503.337C345.235 503.444 345.578 503.456 345.904 503.371C346.229 503.286 346.523 503.108 346.748 502.858C346.973 502.609 347.121 502.299 347.173 501.967C347.224 501.634 347.177 501.294 347.038 500.988C346.899 500.682 346.673 500.423 346.389 500.244C346.105 500.064 345.774 499.972 345.438 499.977C345.015 499.978 344.607 500.137 344.294 500.422C343.982 500.708 343.787 501.1 343.749 501.522H333.363C333.325 501.1 333.131 500.708 332.818 500.422C332.506 500.137 332.098 499.978 331.675 499.977C331.333 499.981 331.001 500.085 330.717 500.276C330.434 500.466 330.213 500.735 330.08 501.05C329.948 501.365 329.91 501.711 329.972 502.047C330.034 502.382 330.193 502.693 330.428 502.94Z" fill="#1781AE"/>
<path d="M203.777 502.488C203.678 502.797 203.666 503.127 203.744 503.442C203.822 503.757 203.985 504.045 204.216 504.272C204.448 504.5 204.738 504.659 205.054 504.731C205.37 504.804 205.7 504.787 206.008 504.683L210.406 514.057C210.113 514.223 209.876 514.472 209.723 514.772C209.569 515.071 209.507 515.409 209.544 515.744C209.581 516.079 209.715 516.395 209.929 516.655C210.143 516.914 210.429 517.105 210.751 517.204C211.072 517.304 211.416 517.306 211.739 517.213C212.063 517.119 212.351 516.933 212.57 516.677C212.789 516.421 212.928 516.107 212.97 515.773C213.012 515.439 212.956 515.1 212.808 514.797C212.633 514.409 212.319 514.101 211.927 513.934C211.536 513.767 211.096 513.753 210.695 513.894L206.306 504.484C206.671 504.27 206.943 503.927 207.07 503.523C207.197 503.12 207.169 502.683 206.992 502.298C206.824 502.011 206.579 501.775 206.285 501.617C205.991 501.46 205.659 501.387 205.326 501.407C204.993 501.426 204.672 501.538 204.399 501.729C204.125 501.92 203.91 502.182 203.777 502.488Z" fill="#1781AE"/>
<path d="M330.745 505.523C330.43 505.44 330.098 505.446 329.786 505.541C329.475 505.636 329.196 505.816 328.981 506.061C328.766 506.306 328.624 506.606 328.57 506.927C328.516 507.248 328.553 507.578 328.676 507.88L319.537 512.802C319.353 512.52 319.09 512.299 318.782 512.165C318.474 512.031 318.133 511.989 317.801 512.046C317.47 512.103 317.162 512.256 316.917 512.486C316.671 512.715 316.497 513.011 316.418 513.338C316.338 513.665 316.356 514.008 316.469 514.325C316.581 514.641 316.784 514.918 317.052 515.121C317.321 515.325 317.642 515.445 317.978 515.467C318.313 515.49 318.648 515.414 318.941 515.249C319.313 515.045 319.595 514.711 319.734 514.31C319.873 513.909 319.857 513.471 319.691 513.082L328.83 508.16C329.063 508.513 329.421 508.767 329.832 508.871C330.243 508.974 330.678 508.92 331.052 508.72C331.35 508.554 331.593 508.305 331.752 508.003C331.91 507.701 331.977 507.36 331.945 507.02C331.912 506.681 331.781 506.359 331.568 506.093C331.355 505.826 331.069 505.628 330.745 505.523Z" fill="#1781AE"/>
<path d="M193.364 499.607C193.078 499.46 192.757 499.394 192.436 499.416C192.115 499.439 191.807 499.55 191.545 499.737C191.282 499.923 191.077 500.178 190.95 500.474C190.823 500.77 190.78 501.095 190.826 501.413L180.82 504.186C180.704 503.87 180.498 503.595 180.228 503.395C179.957 503.195 179.634 503.078 179.298 503.059C178.962 503.04 178.628 503.119 178.337 503.288C178.046 503.456 177.81 503.706 177.659 504.007C177.508 504.308 177.449 504.646 177.487 504.98C177.526 505.314 177.662 505.63 177.878 505.888C178.094 506.146 178.381 506.335 178.703 506.432C179.025 506.529 179.368 506.53 179.691 506.435C180.099 506.32 180.45 506.058 180.675 505.699C180.9 505.34 180.984 504.91 180.91 504.493L190.917 501.729C191.066 502.126 191.358 502.453 191.736 502.645C192.113 502.837 192.549 502.881 192.958 502.768C193.264 502.652 193.532 502.455 193.735 502.198C193.938 501.941 194.067 501.634 194.109 501.309C194.15 500.985 194.103 500.655 193.972 500.355C193.841 500.055 193.631 499.797 193.364 499.607Z" fill="#1781AE"/>
<path d="M161.087 500.51C161.058 500.833 161.12 501.158 161.264 501.448C161.409 501.738 161.631 501.982 161.906 502.153C162.181 502.325 162.499 502.416 162.823 502.418C163.147 502.42 163.465 502.331 163.742 502.163L170.064 510.39C169.812 510.617 169.633 510.913 169.547 511.241C169.462 511.569 169.474 511.915 169.583 512.236C169.692 512.557 169.893 512.838 170.16 513.047C170.428 513.255 170.751 513.38 171.088 513.407C171.426 513.433 171.764 513.36 172.061 513.197C172.358 513.034 172.601 512.787 172.759 512.487C172.917 512.187 172.984 511.848 172.951 511.51C172.918 511.173 172.787 510.853 172.575 510.589C172.316 510.255 171.943 510.029 171.527 509.956C171.111 509.882 170.683 509.966 170.326 510.192L164.004 501.964C164.316 501.679 164.51 501.287 164.547 500.865C164.583 500.444 164.461 500.024 164.203 499.689C163.992 499.418 163.706 499.215 163.381 499.105C163.056 498.995 162.705 498.983 162.374 499.071C162.042 499.158 161.743 499.342 161.514 499.597C161.285 499.853 161.137 500.171 161.087 500.51Z" fill="#1781AE"/>
<path d="M186.681 504.746C186.474 504.504 186.207 504.322 185.907 504.216C185.606 504.111 185.284 504.087 184.971 504.147C184.659 504.206 184.367 504.347 184.127 504.556C183.886 504.764 183.705 505.032 183.602 505.333L173.369 503.59C173.399 503.252 173.33 502.914 173.169 502.615C173.009 502.317 172.765 502.072 172.466 501.911C172.168 501.75 171.83 501.68 171.492 501.709C171.155 501.738 170.833 501.866 170.567 502.076C170.301 502.286 170.103 502.569 169.996 502.891C169.89 503.212 169.88 503.558 169.967 503.885C170.055 504.212 170.237 504.507 170.49 504.732C170.743 504.957 171.056 505.103 171.392 505.152C171.808 505.219 172.235 505.129 172.59 504.901C172.944 504.673 173.203 504.322 173.315 503.915L183.547 505.649C183.512 506.072 183.638 506.493 183.899 506.827C184.16 507.162 184.537 507.386 184.956 507.455C185.293 507.508 185.638 507.461 185.949 507.321C186.26 507.181 186.523 506.953 186.706 506.665C186.889 506.378 186.984 506.043 186.98 505.702C186.975 505.361 186.872 505.029 186.681 504.746Z" fill="#1781AE"/>
<path d="M308.483 510.363C308.693 510.602 308.963 510.78 309.265 510.881C309.567 510.982 309.89 511.001 310.201 510.937C310.513 510.873 310.802 510.728 311.04 510.516C311.277 510.304 311.454 510.033 311.553 509.731L321.84 511.348C321.816 511.683 321.892 512.018 322.056 512.312C322.221 512.605 322.468 512.844 322.767 512.999C323.065 513.154 323.403 513.218 323.737 513.183C324.072 513.149 324.389 513.017 324.65 512.805C324.911 512.592 325.104 512.308 325.205 511.987C325.307 511.667 325.312 511.323 325.221 510.999C325.129 510.675 324.945 510.385 324.691 510.165C324.437 509.944 324.124 509.803 323.791 509.758C323.372 509.694 322.945 509.787 322.593 510.021C322.24 510.255 321.988 510.612 321.885 511.022L311.626 509.433C311.656 509.007 311.525 508.585 311.259 508.25C310.993 507.916 310.612 507.694 310.19 507.627C309.857 507.597 309.522 507.659 309.223 507.808C308.923 507.957 308.671 508.186 308.494 508.47C308.317 508.753 308.222 509.081 308.22 509.415C308.218 509.749 308.309 510.077 308.483 510.363Z" fill="#1781AE"/>
<path d="M171.644 513.849C171.947 513.951 172.271 513.97 172.583 513.905C172.896 513.841 173.186 513.695 173.423 513.482C173.661 513.269 173.838 512.997 173.936 512.694C174.035 512.39 174.051 512.066 173.983 511.754L183.647 507.961C183.794 508.266 184.027 508.521 184.317 508.695C184.608 508.869 184.943 508.954 185.281 508.94C185.619 508.926 185.946 508.813 186.221 508.616C186.496 508.418 186.707 508.144 186.828 507.828C186.949 507.512 186.975 507.167 186.902 506.837C186.83 506.506 186.662 506.204 186.42 505.967C186.178 505.731 185.872 505.57 185.539 505.506C185.207 505.441 184.863 505.475 184.55 505.604C184.154 505.758 183.831 506.056 183.644 506.437C183.456 506.818 183.419 507.255 183.538 507.663L173.866 511.456C173.678 511.077 173.355 510.782 172.96 510.63C172.566 510.478 172.128 510.479 171.735 510.634C171.434 510.777 171.179 511 170.998 511.279C170.816 511.558 170.715 511.882 170.706 512.214C170.697 512.547 170.779 512.875 170.945 513.164C171.111 513.452 171.353 513.69 171.644 513.849Z" fill="#1781AE"/>
<path d="M264.538 506.606C264.252 506.461 263.932 506.397 263.613 506.421C263.293 506.445 262.986 506.556 262.726 506.742C262.465 506.929 262.26 507.183 262.134 507.477C262.008 507.772 261.964 508.095 262.009 508.412L252.021 511.248C251.903 510.93 251.695 510.654 251.421 510.453C251.148 510.252 250.822 510.136 250.484 510.119C250.145 510.101 249.809 510.184 249.516 510.355C249.224 510.527 248.988 510.781 248.839 511.085C248.689 511.389 248.632 511.731 248.674 512.067C248.717 512.403 248.857 512.72 249.077 512.978C249.297 513.235 249.588 513.423 249.914 513.516C250.24 513.61 250.586 513.607 250.91 513.506C251.316 513.388 251.664 513.123 251.886 512.762C252.108 512.402 252.188 511.971 252.111 511.555L262.099 508.729C262.254 509.123 262.549 509.445 262.928 509.634C263.307 509.822 263.742 509.863 264.149 509.749C264.464 509.645 264.743 509.454 264.954 509.197C265.164 508.941 265.297 508.63 265.338 508.301C265.379 507.971 265.325 507.637 265.183 507.337C265.042 507.038 264.818 506.784 264.538 506.606Z" fill="#1781AE"/>
<path d="M134.057 502.669C134.212 502.955 134.444 503.192 134.727 503.354C135.01 503.516 135.332 503.595 135.657 503.584C135.983 503.573 136.299 503.471 136.57 503.29C136.841 503.109 137.056 502.857 137.191 502.56L147.035 505.839C146.953 506.167 146.969 506.513 147.081 506.833C147.194 507.152 147.397 507.432 147.667 507.637C147.936 507.843 148.26 507.965 148.598 507.988C148.936 508.011 149.274 507.935 149.569 507.768C149.864 507.602 150.104 507.353 150.259 507.051C150.414 506.75 150.477 506.41 150.441 506.073C150.405 505.736 150.271 505.417 150.056 505.156C149.84 504.894 149.553 504.701 149.229 504.601C148.831 504.467 148.398 504.485 148.013 504.652C147.627 504.819 147.318 505.123 147.143 505.505L137.29 502.226C137.388 501.813 137.328 501.377 137.121 501.006C136.913 500.634 136.574 500.355 136.17 500.221C135.842 500.114 135.489 500.106 135.156 500.198C134.823 500.291 134.524 500.48 134.299 500.741C134.073 501.003 133.929 501.325 133.886 501.668C133.843 502.011 133.903 502.359 134.057 502.669Z" fill="#1781AE"/>
<path d="M316.53 510.697C316.447 510.383 316.279 510.099 316.044 509.875C315.809 509.651 315.517 509.496 315.199 509.429C314.882 509.362 314.552 509.384 314.246 509.493C313.94 509.602 313.671 509.794 313.468 510.047L304.699 504.493C304.857 504.193 304.923 503.854 304.89 503.517C304.858 503.18 304.727 502.86 304.514 502.596C304.301 502.333 304.016 502.137 303.693 502.034C303.371 501.93 303.025 501.924 302.699 502.015C302.373 502.106 302.08 502.29 301.858 502.546C301.635 502.801 301.492 503.116 301.446 503.451C301.401 503.787 301.454 504.129 301.601 504.434C301.747 504.739 301.98 504.995 302.27 505.17C302.626 505.398 303.055 505.483 303.471 505.409C303.888 505.336 304.261 505.109 304.518 504.773L313.297 510.327C313.102 510.702 313.056 511.137 313.166 511.545C313.276 511.953 313.536 512.304 313.893 512.531C314.183 512.709 314.519 512.799 314.86 512.79C315.201 512.781 315.531 512.672 315.811 512.477C316.091 512.283 316.308 512.011 316.436 511.694C316.564 511.378 316.596 511.032 316.53 510.697Z" fill="#1781AE"/>
<path d="M123.843 506.778C123.621 507.016 123.471 507.312 123.408 507.631C123.345 507.951 123.372 508.281 123.486 508.586C123.601 508.891 123.798 509.158 124.055 509.357C124.313 509.556 124.621 509.679 124.945 509.713V520.09C124.607 520.116 124.285 520.241 124.018 520.448C123.75 520.656 123.549 520.937 123.44 521.257C123.33 521.577 123.317 521.923 123.401 522.251C123.486 522.578 123.664 522.874 123.915 523.102C124.165 523.329 124.477 523.479 124.811 523.531C125.146 523.584 125.488 523.537 125.796 523.397C126.105 523.258 126.365 523.031 126.546 522.745C126.727 522.459 126.82 522.126 126.814 521.787C126.814 521.363 126.655 520.954 126.37 520.64C126.084 520.326 125.692 520.13 125.27 520.09V509.713C125.691 509.675 126.084 509.48 126.369 509.168C126.655 508.855 126.814 508.447 126.814 508.024C126.79 507.691 126.674 507.372 126.48 507.1C126.285 506.829 126.019 506.618 125.711 506.488C125.403 506.359 125.066 506.318 124.736 506.369C124.406 506.42 124.097 506.562 123.843 506.778Z" fill="#1781AE"/>
<path d="M253.8 503.093C253.544 502.892 253.237 502.765 252.914 502.729C252.59 502.692 252.263 502.746 251.969 502.885C251.674 503.023 251.424 503.241 251.247 503.514C251.069 503.787 250.971 504.104 250.964 504.43L240.614 505.279C240.56 504.947 240.41 504.638 240.182 504.39C239.954 504.143 239.659 503.967 239.333 503.885C239.007 503.803 238.664 503.818 238.346 503.928C238.029 504.039 237.75 504.239 237.545 504.506C237.34 504.773 237.217 505.093 237.192 505.429C237.167 505.764 237.24 506.1 237.403 506.394C237.566 506.688 237.812 506.928 238.11 507.085C238.407 507.241 238.744 507.307 239.079 507.275C239.5 507.239 239.893 507.048 240.182 506.74C240.47 506.431 240.634 506.026 240.641 505.604L250.991 504.755C251.064 505.171 251.289 505.545 251.623 505.804C251.957 506.063 252.376 506.188 252.797 506.155C253.127 506.104 253.436 505.963 253.691 505.747C253.945 505.531 254.135 505.249 254.238 504.932C254.342 504.615 254.356 504.275 254.279 503.95C254.201 503.626 254.036 503.329 253.8 503.093Z" fill="#1781AE"/>
<path d="M180.422 515.655C180.744 515.601 181.045 515.457 181.289 515.241C181.534 515.025 181.713 514.745 181.807 514.432C181.901 514.119 181.906 513.786 181.821 513.471C181.736 513.156 181.564 512.871 181.326 512.648L187.521 504.321C187.806 504.499 188.137 504.589 188.473 504.581C188.809 504.573 189.136 504.467 189.412 504.276C189.689 504.085 189.903 503.817 190.03 503.506C190.156 503.194 190.189 502.853 190.124 502.523C190.059 502.193 189.899 501.89 189.664 501.65C189.429 501.409 189.129 501.243 188.8 501.171C188.472 501.1 188.13 501.125 187.816 501.245C187.502 501.365 187.23 501.574 187.033 501.847C186.78 502.188 186.663 502.61 186.704 503.033C186.746 503.455 186.944 503.847 187.259 504.132L181.064 512.458C180.702 512.237 180.271 512.159 179.855 512.239C179.439 512.319 179.068 512.552 178.815 512.892C178.618 513.166 178.505 513.492 178.489 513.829C178.472 514.167 178.554 514.502 178.724 514.794C178.894 515.086 179.145 515.323 179.446 515.475C179.747 515.628 180.086 515.691 180.422 515.655Z" fill="#1781AE"/>
<path d="M281.326 512.386C281.647 512.434 281.975 512.392 282.274 512.265C282.572 512.137 282.83 511.93 283.017 511.665C283.204 511.4 283.314 511.088 283.335 510.764C283.355 510.44 283.285 510.117 283.133 509.83L291.739 504.023C291.951 504.287 292.235 504.483 292.557 504.588C292.879 504.692 293.225 504.7 293.551 504.61C293.877 504.52 294.17 504.337 294.394 504.083C294.617 503.829 294.762 503.515 294.809 503.18C294.856 502.845 294.804 502.503 294.659 502.197C294.515 501.891 294.284 501.634 293.995 501.458C293.706 501.282 293.372 501.194 293.034 501.205C292.695 501.217 292.368 501.327 292.092 501.522C291.742 501.761 291.493 502.122 291.395 502.534C291.296 502.947 291.355 503.381 291.559 503.752L282.961 509.541C282.693 509.213 282.312 508.996 281.893 508.934C281.473 508.872 281.046 508.97 280.694 509.207C280.405 509.399 280.179 509.673 280.046 509.994C279.912 510.315 279.877 510.668 279.945 511.009C280.013 511.349 280.18 511.662 280.426 511.907C280.672 512.153 280.986 512.319 281.326 512.386Z" fill="#1781AE"/>
<path d="M161.114 502.109C160.836 501.948 160.519 501.864 160.198 501.866C159.876 501.869 159.561 501.957 159.285 502.121C159.009 502.286 158.781 502.522 158.627 502.804C158.472 503.086 158.395 503.404 158.405 503.725L148.2 505.622C148.111 505.295 147.929 505.001 147.676 504.776C147.422 504.552 147.108 504.406 146.773 504.358C146.438 504.31 146.096 504.36 145.789 504.504C145.483 504.648 145.225 504.879 145.048 505.167C144.871 505.456 144.782 505.79 144.793 506.129C144.803 506.467 144.913 506.795 145.108 507.072C145.303 507.349 145.575 507.563 145.89 507.687C146.205 507.811 146.55 507.841 146.881 507.771C147.294 507.694 147.664 507.467 147.919 507.134C148.174 506.8 148.297 506.384 148.263 505.965L158.468 504.059C158.583 504.467 158.845 504.817 159.204 505.041C159.564 505.265 159.993 505.346 160.41 505.27C160.737 505.19 161.035 505.02 161.271 504.779C161.507 504.539 161.67 504.237 161.744 503.908C161.817 503.579 161.797 503.237 161.686 502.919C161.574 502.601 161.376 502.32 161.114 502.109Z" fill="#1781AE"/>
<path d="M307.264 499.688C306.941 499.649 306.613 499.7 306.318 499.836C306.022 499.971 305.771 500.187 305.591 500.458C305.411 500.729 305.31 501.044 305.299 501.369C305.288 501.695 305.368 502.016 305.53 502.298L297.122 508.385C296.902 508.128 296.611 507.941 296.286 507.847C295.961 507.753 295.615 507.757 295.292 507.857C294.968 507.957 294.682 508.15 294.466 508.411C294.251 508.672 294.117 508.991 294.081 509.327C294.044 509.664 294.107 510.003 294.262 510.305C294.416 510.606 294.656 510.855 294.95 511.022C295.245 511.189 295.582 511.266 295.919 511.243C296.257 511.221 296.581 511.1 296.851 510.896C297.193 510.646 297.431 510.277 297.518 509.862C297.604 509.447 297.534 509.014 297.321 508.647L305.719 502.56C306 502.877 306.387 503.078 306.807 503.127C307.227 503.175 307.65 503.067 307.995 502.822C308.271 502.619 308.48 502.339 308.599 502.018C308.717 501.697 308.738 501.348 308.66 501.015C308.583 500.681 308.409 500.378 308.161 500.142C307.912 499.907 307.601 499.749 307.264 499.688Z" fill="#1781AE"/>
<path d="M204.337 501.775C204.064 501.617 203.755 501.534 203.441 501.532C203.126 501.531 202.817 501.612 202.543 501.767C202.269 501.922 202.041 502.146 201.88 502.417C201.72 502.687 201.632 502.995 201.627 503.31L191.368 504.89C191.29 504.564 191.117 504.267 190.872 504.037C190.627 503.807 190.321 503.653 189.99 503.595C189.659 503.536 189.318 503.576 189.009 503.709C188.7 503.842 188.437 504.062 188.252 504.342C188.067 504.623 187.967 504.951 187.966 505.287C187.965 505.623 188.062 505.953 188.245 506.234C188.428 506.516 188.69 506.738 188.998 506.873C189.305 507.008 189.646 507.05 189.977 506.995C190.401 506.932 190.785 506.71 191.052 506.375C191.318 506.04 191.448 505.615 191.413 505.188L201.682 503.599C201.783 504.011 202.034 504.37 202.387 504.606C202.74 504.841 203.168 504.936 203.587 504.872C203.904 504.79 204.193 504.624 204.422 504.391C204.652 504.158 204.814 503.866 204.891 503.548C204.968 503.23 204.957 502.897 204.859 502.585C204.762 502.272 204.581 501.992 204.337 501.775Z" fill="#1781AE"/>
<path d="M214.099 516.414C214.36 516.231 214.569 515.983 214.703 515.694C214.837 515.404 214.892 515.085 214.862 514.768C214.833 514.45 214.72 514.146 214.535 513.887C214.351 513.627 214.101 513.421 213.81 513.289L216.52 503.265C216.851 503.325 217.192 503.288 217.502 503.156C217.812 503.025 218.077 502.806 218.264 502.527C218.451 502.247 218.552 501.918 218.555 501.582C218.557 501.245 218.462 500.915 218.279 500.633C218.097 500.35 217.836 500.127 217.528 499.991C217.22 499.854 216.879 499.811 216.547 499.866C216.215 499.921 215.907 500.073 215.659 500.301C215.412 500.529 215.237 500.825 215.156 501.151C215.046 501.56 215.093 501.994 215.286 502.37C215.48 502.746 215.807 503.036 216.204 503.183L213.494 513.208C213.077 513.137 212.648 513.223 212.291 513.45C211.934 513.677 211.674 514.028 211.562 514.436C211.499 514.763 211.527 515.101 211.644 515.412C211.762 515.724 211.962 515.997 212.225 516.202C212.488 516.407 212.801 516.535 213.132 516.572C213.463 516.609 213.798 516.555 214.099 516.414Z" fill="#1781AE"/>
<path d="M309.386 502.055C309.624 502.276 309.919 502.427 310.238 502.49C310.556 502.554 310.886 502.527 311.191 502.414C311.495 502.3 311.762 502.105 311.962 501.848C312.162 501.592 312.286 501.285 312.321 500.962H322.707C322.735 501.297 322.861 501.616 323.068 501.881C323.276 502.146 323.556 502.344 323.874 502.452C324.193 502.559 324.536 502.571 324.862 502.486C325.187 502.401 325.48 502.223 325.706 501.973C325.931 501.724 326.079 501.414 326.13 501.082C326.182 500.749 326.135 500.409 325.996 500.103C325.857 499.797 325.631 499.538 325.347 499.359C325.063 499.179 324.732 499.087 324.396 499.092C323.972 499.093 323.564 499.252 323.252 499.537C322.94 499.823 322.745 500.215 322.707 500.637H312.321C312.283 500.215 312.089 499.823 311.776 499.537C311.464 499.252 311.056 499.093 310.632 499.092C310.291 499.096 309.958 499.2 309.675 499.391C309.392 499.581 309.17 499.85 309.038 500.165C308.906 500.48 308.868 500.826 308.93 501.162C308.992 501.497 309.15 501.808 309.386 502.055Z" fill="#1781AE"/>
<path d="M159.976 512.341C159.829 512.058 159.611 511.82 159.342 511.649C159.073 511.478 158.764 511.381 158.446 511.369C158.128 511.356 157.812 511.427 157.53 511.576C157.249 511.724 157.011 511.945 156.842 512.215L147.27 508.196C147.374 507.876 147.383 507.532 147.295 507.207C147.207 506.882 147.026 506.59 146.774 506.367C146.522 506.144 146.21 505.999 145.877 505.951C145.544 505.903 145.204 505.953 144.899 506.096C144.594 506.239 144.338 506.468 144.161 506.755C143.985 507.041 143.896 507.373 143.906 507.71C143.916 508.046 144.025 508.373 144.218 508.648C144.411 508.924 144.681 509.137 144.994 509.261C145.383 509.426 145.82 509.438 146.218 509.296C146.616 509.153 146.946 508.867 147.143 508.494L156.761 512.522C156.636 512.926 156.666 513.363 156.844 513.746C157.023 514.13 157.338 514.434 157.727 514.599C158.041 514.693 158.374 514.701 158.691 514.621C159.008 514.541 159.298 514.376 159.529 514.144C159.76 513.912 159.923 513.622 160.002 513.304C160.081 512.987 160.072 512.654 159.976 512.341Z" fill="#1781AE"/>
<path d="M366.562 509.74C366.281 509.577 365.96 509.496 365.635 509.505C365.311 509.513 364.995 509.612 364.723 509.79C364.451 509.968 364.235 510.218 364.097 510.513C363.959 510.807 363.906 511.133 363.943 511.456L353.819 513.741C353.717 513.418 353.524 513.132 353.261 512.918C352.999 512.704 352.68 512.571 352.344 512.537C352.007 512.502 351.668 512.566 351.367 512.722C351.067 512.877 350.819 513.117 350.653 513.412C350.487 513.707 350.412 514.044 350.435 514.382C350.459 514.719 350.58 515.043 350.786 515.312C350.991 515.581 351.27 515.784 351.589 515.897C351.908 516.009 352.253 516.026 352.582 515.944C352.996 515.849 353.359 515.603 353.601 515.254C353.844 514.905 353.947 514.478 353.891 514.057L364.015 511.772C364.146 512.174 364.423 512.512 364.79 512.721C365.157 512.929 365.59 512.994 366.002 512.901C366.333 512.821 366.633 512.646 366.867 512.398C367.1 512.15 367.256 511.839 367.315 511.504C367.375 511.168 367.335 510.823 367.201 510.51C367.067 510.196 366.845 509.929 366.562 509.74Z" fill="#1781AE"/>
<path d="M276.585 511.284C276.429 510.998 276.196 510.762 275.913 510.601C275.63 510.44 275.308 510.361 274.982 510.373C274.657 510.386 274.341 510.488 274.071 510.67C273.8 510.852 273.586 511.105 273.451 511.402L263.599 508.123C263.681 507.795 263.664 507.449 263.552 507.129C263.44 506.81 263.236 506.53 262.967 506.325C262.697 506.119 262.373 505.998 262.035 505.974C261.697 505.951 261.36 506.027 261.065 506.194C260.769 506.36 260.529 506.609 260.374 506.911C260.219 507.212 260.156 507.552 260.192 507.889C260.228 508.226 260.362 508.545 260.578 508.806C260.793 509.068 261.08 509.261 261.404 509.361C261.803 509.497 262.239 509.48 262.626 509.314C263.013 509.147 263.325 508.842 263.499 508.458L273.352 511.736C273.254 512.147 273.313 512.581 273.519 512.95C273.725 513.32 274.061 513.599 274.463 513.732C274.789 513.817 275.132 513.809 275.454 513.71C275.776 513.61 276.064 513.422 276.285 513.168C276.506 512.913 276.651 512.602 276.704 512.269C276.757 511.936 276.716 511.595 276.585 511.284Z" fill="#1781AE"/>
<path d="M131.474 508.521C131.686 508.769 131.962 508.953 132.272 509.052C132.583 509.152 132.914 509.162 133.231 509.084C133.547 509.005 133.835 508.839 134.062 508.606C134.289 508.373 134.447 508.08 134.518 507.762L144.831 508.909C144.82 509.246 144.908 509.578 145.084 509.865C145.259 510.152 145.515 510.381 145.819 510.525C146.124 510.668 146.464 510.72 146.797 510.673C147.13 510.625 147.442 510.482 147.695 510.259C147.947 510.037 148.129 509.745 148.219 509.421C148.308 509.096 148.3 508.753 148.196 508.433C148.092 508.113 147.897 507.83 147.634 507.619C147.372 507.409 147.054 507.279 146.718 507.247C146.287 507.195 145.851 507.309 145.502 507.568C145.152 507.827 144.915 508.21 144.84 508.638L134.527 507.482C134.532 507.059 134.381 506.65 134.103 506.331C133.824 506.013 133.438 505.808 133.018 505.757C132.695 505.755 132.377 505.84 132.097 506.002C131.818 506.165 131.587 506.4 131.429 506.682C131.271 506.965 131.192 507.284 131.2 507.608C131.208 507.931 131.303 508.246 131.474 508.521Z" fill="#1781AE"/>
<path d="M333.824 508.06C334.062 508.282 334.357 508.432 334.675 508.496C334.994 508.559 335.324 508.533 335.629 508.419C335.933 508.306 336.2 508.11 336.4 507.854C336.6 507.597 336.724 507.291 336.759 506.967H347.145C347.173 507.303 347.299 507.622 347.506 507.887C347.714 508.151 347.994 508.35 348.312 508.457C348.631 508.565 348.974 508.577 349.3 508.492C349.625 508.407 349.918 508.229 350.144 507.979C350.369 507.729 350.517 507.419 350.568 507.087C350.62 506.755 350.573 506.415 350.434 506.109C350.295 505.803 350.069 505.544 349.785 505.364C349.5 505.185 349.17 505.092 348.834 505.098C348.41 505.099 348.002 505.257 347.69 505.543C347.378 505.829 347.183 506.221 347.145 506.642H336.759C336.721 506.221 336.526 505.829 336.214 505.543C335.902 505.257 335.494 505.099 335.07 505.098C334.729 505.102 334.396 505.206 334.113 505.396C333.83 505.587 333.608 505.856 333.476 506.17C333.344 506.485 333.306 506.832 333.368 507.167C333.43 507.503 333.588 507.813 333.824 508.06Z" fill="#1781AE"/>
<path d="M122.235 501.576C122.034 501.831 121.908 502.137 121.871 502.46C121.834 502.782 121.887 503.109 122.025 503.403C122.162 503.697 122.379 503.947 122.651 504.125C122.922 504.304 123.238 504.403 123.563 504.412L124.421 514.761C124.089 514.816 123.78 514.967 123.532 515.195C123.284 515.423 123.109 515.718 123.027 516.045C122.946 516.372 122.961 516.715 123.073 517.033C123.184 517.351 123.385 517.629 123.653 517.834C123.92 518.038 124.242 518.16 124.578 518.184C124.913 518.208 125.249 518.133 125.543 517.969C125.837 517.804 126.076 517.558 126.231 517.259C126.387 516.96 126.451 516.622 126.417 516.287C126.383 515.865 126.191 515.471 125.88 515.183C125.569 514.895 125.161 514.735 124.737 514.734L123.888 504.385C124.304 504.312 124.678 504.086 124.937 503.752C125.196 503.418 125.321 503 125.288 502.578C125.256 502.239 125.126 501.916 124.913 501.649C124.7 501.382 124.414 501.183 124.09 501.077C123.766 500.97 123.418 500.961 123.088 501.05C122.759 501.138 122.462 501.321 122.235 501.576Z" fill="#1781AE"/>
<path d="M144.19 518.256C144.494 518.141 144.759 517.943 144.957 517.685C145.154 517.427 145.276 517.119 145.309 516.796C145.342 516.473 145.284 516.147 145.142 515.854C145.001 515.562 144.78 515.315 144.506 515.141L149.085 505.821C149.398 505.951 149.743 505.986 150.077 505.923C150.41 505.859 150.718 505.698 150.961 505.461C151.204 505.224 151.372 504.921 151.445 504.589C151.517 504.258 151.491 503.912 151.368 503.595C151.246 503.278 151.033 503.004 150.757 502.807C150.48 502.61 150.152 502.499 149.812 502.487C149.473 502.475 149.138 502.562 148.848 502.739C148.558 502.916 148.326 503.174 148.182 503.481C147.998 503.863 147.961 504.299 148.08 504.706C148.198 505.113 148.463 505.462 148.823 505.685L144.208 514.96C143.812 514.811 143.374 514.814 142.98 514.969C142.587 515.124 142.264 515.42 142.077 515.8C141.919 516.109 141.858 516.459 141.899 516.803C141.941 517.148 142.084 517.473 142.311 517.736C142.537 517.999 142.837 518.189 143.171 518.282C143.506 518.374 143.86 518.366 144.19 518.256Z" fill="#1781AE"/>
<path d="M197.609 517.29C197.911 517.17 198.174 516.968 198.367 516.707C198.561 516.445 198.677 516.135 198.703 515.811C198.73 515.487 198.665 515.162 198.516 514.872C198.367 514.583 198.141 514.341 197.862 514.174L202.269 504.764C202.584 504.881 202.927 504.903 203.255 504.828C203.582 504.752 203.881 504.583 204.114 504.34C204.346 504.097 204.503 503.791 204.564 503.461C204.626 503.13 204.589 502.788 204.458 502.478C204.328 502.168 204.11 501.903 203.831 501.715C203.552 501.527 203.224 501.425 202.887 501.422C202.551 501.418 202.221 501.513 201.938 501.694C201.655 501.876 201.431 502.136 201.293 502.443C201.113 502.826 201.083 503.263 201.209 503.667C201.334 504.071 201.606 504.414 201.971 504.628L197.563 514.057C197.162 513.917 196.723 513.932 196.332 514.1C195.941 514.267 195.627 514.573 195.45 514.96C195.346 515.268 195.326 515.599 195.394 515.917C195.462 516.235 195.615 516.529 195.836 516.768C196.057 517.006 196.338 517.181 196.65 517.273C196.962 517.365 197.293 517.371 197.609 517.29Z" fill="#1781AE"/>
<path d="M128.105 499.201C127.813 499.061 127.487 499.005 127.164 499.04C126.842 499.075 126.535 499.198 126.279 499.396C126.022 499.595 125.826 499.861 125.712 500.164C125.597 500.468 125.569 500.797 125.631 501.115L115.697 504.204C115.571 503.892 115.356 503.624 115.079 503.433C114.803 503.241 114.476 503.135 114.14 503.127C113.803 503.119 113.472 503.209 113.187 503.387C112.901 503.565 112.674 503.822 112.532 504.127C112.391 504.433 112.342 504.773 112.392 505.105C112.441 505.438 112.587 505.749 112.811 506C113.035 506.251 113.328 506.431 113.653 506.518C113.978 506.605 114.321 506.595 114.64 506.489C115.044 506.361 115.386 506.088 115.599 505.723C115.813 505.357 115.883 504.925 115.796 504.511L125.73 501.431C125.893 501.821 126.195 502.135 126.578 502.314C126.96 502.493 127.395 502.523 127.798 502.398C128.123 502.292 128.409 502.094 128.622 501.828C128.835 501.562 128.966 501.239 128.999 500.9C129.031 500.56 128.964 500.219 128.805 499.917C128.647 499.615 128.404 499.366 128.105 499.201Z" fill="#1781AE"/>
<path d="M165.422 505.586C165.145 505.415 164.826 505.325 164.5 505.325C164.174 505.325 163.855 505.417 163.579 505.588C163.302 505.76 163.079 506.005 162.934 506.297C162.789 506.588 162.728 506.914 162.758 507.238L152.58 509.279C152.485 508.957 152.299 508.668 152.043 508.45C151.787 508.232 151.473 508.093 151.139 508.051C150.805 508.009 150.467 508.066 150.165 508.214C149.863 508.362 149.611 508.595 149.439 508.885C149.268 509.174 149.185 509.507 149.201 509.843C149.216 510.179 149.33 510.503 149.527 510.775C149.725 511.048 149.998 511.256 150.312 511.376C150.626 511.495 150.969 511.52 151.297 511.447C151.704 511.362 152.065 511.132 152.313 510.799C152.561 510.466 152.678 510.054 152.643 509.641L162.821 507.591C162.943 507.997 163.212 508.344 163.577 508.563C163.941 508.782 164.373 508.857 164.79 508.774C165.118 508.688 165.415 508.511 165.647 508.265C165.88 508.018 166.038 507.71 166.104 507.378C166.17 507.045 166.141 506.701 166.02 506.384C165.9 506.067 165.692 505.79 165.422 505.586Z" fill="#1781AE"/>
<path d="M125.432 502.985C125.431 503.302 125.514 503.615 125.672 503.89C125.83 504.166 126.058 504.395 126.332 504.554C126.607 504.714 126.919 504.798 127.237 504.798C127.554 504.799 127.867 504.715 128.142 504.556L134.734 512.567C134.491 512.802 134.321 513.103 134.247 513.434C134.173 513.764 134.197 514.109 134.316 514.426C134.436 514.743 134.646 515.018 134.92 515.217C135.194 515.416 135.52 515.53 135.858 515.546C136.196 515.562 136.532 515.478 136.823 515.306C137.115 515.133 137.349 514.879 137.497 514.574C137.646 514.27 137.702 513.929 137.659 513.593C137.615 513.257 137.475 512.941 137.254 512.684C136.984 512.359 136.602 512.145 136.183 512.085C135.764 512.025 135.338 512.123 134.987 512.359L128.386 504.348C128.688 504.052 128.868 503.652 128.89 503.229C128.912 502.806 128.774 502.39 128.503 502.064C128.282 501.805 127.991 501.617 127.665 501.521C127.34 501.425 126.993 501.426 126.667 501.524C126.342 501.621 126.052 501.811 125.833 502.071C125.614 502.33 125.474 502.648 125.432 502.985Z" fill="#1781AE"/>
<path d="M132.684 508.927C132.729 509.25 132.862 509.554 133.07 509.805C133.278 510.056 133.551 510.244 133.86 510.348C134.168 510.452 134.5 510.468 134.817 510.394C135.134 510.32 135.425 510.159 135.655 509.93L143.711 516.486C143.519 516.765 143.414 517.095 143.407 517.433C143.4 517.772 143.493 518.105 143.673 518.391C143.854 518.678 144.114 518.906 144.422 519.046C144.73 519.186 145.073 519.233 145.408 519.181C145.742 519.129 146.054 518.98 146.305 518.752C146.556 518.525 146.735 518.229 146.819 517.901C146.904 517.573 146.891 517.228 146.782 516.907C146.672 516.587 146.471 516.306 146.204 516.098C145.873 515.831 145.455 515.697 145.031 515.722C144.606 515.747 144.207 515.929 143.91 516.233L135.854 509.677C136.091 509.327 136.188 508.901 136.126 508.483C136.064 508.065 135.848 507.685 135.52 507.419C135.253 507.207 134.93 507.078 134.59 507.047C134.251 507.016 133.909 507.085 133.608 507.245C133.307 507.405 133.059 507.649 132.895 507.948C132.731 508.247 132.658 508.587 132.684 508.927Z" fill="#1781AE"/>
<path d="M197.401 513.1C197.386 512.775 197.281 512.46 197.098 512.192C196.914 511.923 196.66 511.711 196.363 511.579C196.066 511.447 195.738 511.4 195.415 511.443C195.093 511.487 194.789 511.62 194.538 511.826L187.106 504.601C187.319 504.342 187.453 504.025 187.489 503.69C187.525 503.356 187.463 503.018 187.309 502.719C187.156 502.419 186.918 502.171 186.626 502.005C186.333 501.839 185.998 501.762 185.663 501.784C185.327 501.805 185.005 501.925 184.736 502.127C184.467 502.33 184.264 502.606 184.15 502.923C184.037 503.24 184.018 503.583 184.097 503.91C184.176 504.237 184.349 504.534 184.595 504.764C184.899 505.056 185.301 505.226 185.723 505.239C186.145 505.252 186.557 505.109 186.88 504.836L194.312 512.061C194.045 512.389 193.909 512.805 193.933 513.228C193.956 513.651 194.137 514.049 194.439 514.346C194.686 514.582 194.996 514.74 195.332 514.802C195.667 514.864 196.014 514.826 196.329 514.694C196.643 514.562 196.912 514.34 197.103 514.057C197.293 513.774 197.397 513.441 197.401 513.1Z" fill="#1781AE"/>
<path d="M164.6 506.164C164.691 506.476 164.866 506.756 165.107 506.974C165.348 507.192 165.645 507.339 165.964 507.398C166.284 507.457 166.614 507.426 166.916 507.309C167.219 507.191 167.484 506.992 167.68 506.733L176.584 512.061C176.436 512.363 176.379 512.701 176.42 513.035C176.462 513.369 176.6 513.683 176.817 513.939C177.035 514.195 177.323 514.383 177.645 514.477C177.968 514.572 178.311 514.571 178.633 514.473C178.955 514.376 179.241 514.186 179.456 513.928C179.672 513.67 179.807 513.354 179.846 513.02C179.884 512.686 179.824 512.348 179.673 512.048C179.522 511.748 179.287 511.498 178.996 511.329C178.632 511.113 178.201 511.041 177.787 511.126C177.372 511.211 177.005 511.448 176.756 511.79L167.842 506.453C168.027 506.072 168.063 505.635 167.943 505.229C167.822 504.823 167.555 504.477 167.192 504.258C166.897 504.085 166.557 504.003 166.216 504.021C165.874 504.039 165.545 504.156 165.27 504.359C164.994 504.562 164.784 504.84 164.665 505.161C164.546 505.482 164.523 505.83 164.6 506.164Z" fill="#1781AE"/>
</g>
</g>
<defs>
<clipPath id="clip0_16_17">
<rect width="476" height="523.485" fill="white"/>
</clipPath>
</defs>
</svg>
